<svg width="512" height="512" viewBox="0 0 512 512" fill="none" xmlns="http://www.w3.org/2000/svg">
<rect width="512" height="512" rx="76.8" fill="#E0E0E0"/>
<path d="M149.333 96H362.667C372.238 96 380 103.762 380 113.333V398.667C380 408.238 372.238 416 362.667 416H149.333C139.762 416 132 408.238 132 398.667V113.333C132 103.762 139.762 96 149.333 96Z" fill="#F8F8F8" stroke="black" stroke-width="12"/>
<path d="M224 234.667C224 225.095 231.762 217.333 241.333 217.333H309.333C318.905 217.333 326.667 225.095 326.667 234.667V312C326.667 338.509 304.509 360 278 360C251.491 360 229.333 338.509 229.333 312V290.667" stroke="#000000" stroke-width="12"/>
</svg>
