<svg xmlns="http://www.w3.org/2000/svg" width="516" height="516" viewBox="-0.5 -0.5 17 17">
  <!-- Rounded rectangle background with border -->
  <rect x="0" y="0" width="16" height="16" rx="3" ry="3" fill="white" stroke="black" stroke-width="1"/>

  <!-- Outlined spade shape (no fill, just stroke) -->
  <g transform="translate(2,2) scale(0.75)">
    <path d="M7.184 11.246A3.5 3.5 0 0 1 1 9
             c0-1.602 1.14-2.633 2.66-4.008
             C4.986 3.792 6.602 2.33 8 0
             c1.398 2.33 3.014 3.792 4.34 4.992
             C13.86 6.367 15 7.398 15 9
             a3.5 3.5 0 0 1-6.184 2.246
             a20 20 0 0 0 1.582 2.907
             c.231.35-.02.847-.438.847
             H6.04
             c-.419 0-.67-.497-.438-.847
             a20 20 0 0 0 1.582-2.907"
          fill="none"
          stroke="black"
          stroke-width="1.25"
          stroke-linejoin="round"
          stroke-linecap="round"/>
  </g>
</svg>
